<svg width="24" height="24" viewBox="0 0 24 24" fill="none" xmlns="http://www.w3.org/2000/svg">
<path d="M12 0C9.62663 0 7.30655 0.703788 5.33316 2.02236C3.35977 3.34094 1.8217 5.21508 0.913451 7.4078C0.00519937 9.60051 -0.232441 12.0133 0.230582 14.3411C0.693605 16.6689 1.83649 18.807 3.51472 20.4853C5.19295 22.1635 7.33115 23.3064 9.65892 23.7694C11.9867 24.2324 14.3995 23.9948 16.5922 23.0865C18.7849 22.1783 20.6591 20.6402 21.9776 18.6668C23.2962 16.6934 24 14.3734 24 12C24 10.4241 23.6896 8.8637 23.0866 7.4078C22.4835 5.95189 21.5996 4.62902 20.4853 3.51472C19.371 2.40042 18.0481 1.5165 16.5922 0.913445C15.1363 0.310389 13.5759 0 12 0ZM15.852 14.148C15.9645 14.2596 16.0537 14.3923 16.1147 14.5385C16.1756 14.6847 16.207 14.8416 16.207 15C16.207 15.1584 16.1756 15.3153 16.1147 15.4615C16.0537 15.6077 15.9645 15.7404 15.852 15.852C15.7404 15.9645 15.6077 16.0537 15.4615 16.1147C15.3153 16.1756 15.1584 16.207 15 16.207C14.8416 16.207 14.6847 16.1756 14.5385 16.1147C14.3923 16.0537 14.2596 15.9645 14.148 15.852L12 13.692L9.852 15.852C9.74045 15.9645 9.60773 16.0537 9.46149 16.1147C9.31526 16.1756 9.15842 16.207 9 16.207C8.84159 16.207 8.68474 16.1756 8.53851 16.1147C8.39228 16.0537 8.25956 15.9645 8.148 15.852C8.03553 15.7404 7.94626 15.6077 7.88533 15.4615C7.82441 15.3153 7.79305 15.1584 7.79305 15C7.79305 14.8416 7.82441 14.6847 7.88533 14.5385C7.94626 14.3923 8.03553 14.2596 8.148 14.148L10.308 12L8.148 9.852C7.92204 9.62603 7.79509 9.31956 7.79509 9C7.79509 8.68044 7.92204 8.37396 8.148 8.148C8.37397 7.92203 8.68044 7.79509 9 7.79509C9.31956 7.79509 9.62604 7.92203 9.852 8.148L12 10.308L14.148 8.148C14.374 7.92203 14.6804 7.79509 15 7.79509C15.3196 7.79509 15.626 7.92203 15.852 8.148C16.078 8.37396 16.2049 8.68044 16.2049 9C16.2049 9.31956 16.078 9.62603 15.852 9.852L13.692 12L15.852 14.148Z" fill="#333333"/>
</svg>
