<svg width="78" height="78" viewBox="0 0 78 78" fill="none" xmlns="http://www.w3.org/2000/svg">
<circle cx="39" cy="39" r="36.2632" fill="url(#paint0_radial_167_23)" stroke="#141E46" stroke-width="5.47368"/>
<path d="M47.355 60.8888C47.6819 60.9123 48.01 60.8652 48.3171 60.7507C48.6242 60.6362 48.9031 60.4569 49.1347 60.2251L54.0807 55.2792C54.3522 55.0066 54.5047 54.6376 54.5047 54.2529C54.5047 53.8681 54.3522 53.4991 54.0807 53.2266L46.4612 45.6063C46.3262 45.4712 46.1659 45.364 45.9894 45.2908C45.813 45.2177 45.6238 45.1801 45.4328 45.1801C45.2418 45.1801 45.0526 45.2177 44.8762 45.2908C44.6997 45.364 44.5394 45.4712 44.4044 45.6063L41.0783 48.9323C40.5651 49.4455 39.869 49.7337 39.1433 49.7337C38.4175 49.7337 37.7215 49.4455 37.2083 48.9323L30.4347 42.1596C30.1805 41.9055 29.9788 41.6037 29.8413 41.2717C29.7037 40.9396 29.6329 40.5836 29.6329 40.2242C29.6329 39.8647 29.7037 39.5088 29.8413 39.1767C29.9788 38.8446 30.1805 38.5429 30.4347 38.2888L33.7608 34.9627C34.0323 34.6902 34.1848 34.3211 34.1848 33.9364C34.1848 33.5516 34.0323 33.1826 33.7608 32.9101L26.1413 25.283C25.8688 25.0114 25.4998 24.8589 25.115 24.8589C24.7303 24.8589 24.3612 25.0114 24.0887 25.283L19.1428 30.2254C18.9099 30.4584 18.73 30.739 18.6156 31.048C18.5012 31.3569 18.455 31.687 18.48 32.0155C19.6885 47.877 32.2179 59.8026 47.355 60.8888Z" fill="#8DECB4"/>
<path d="M54.0807 53.223L53.6804 52.8219C53.6092 52.9718 53.5132 53.1085 53.3965 53.2265L48.4497 58.1724C48.2182 58.4044 47.9393 58.5838 47.6322 58.6983C47.3251 58.8128 46.9969 58.8598 46.6699 58.836C40.7062 58.4083 34.9912 56.2751 30.2059 52.6904C25.4206 49.1058 21.7668 44.2209 19.6799 38.6179C21.4781 44.7055 25.0912 50.0994 30.0365 54.079C34.9817 58.0585 41.0236 60.4342 47.355 60.8886C47.6819 60.9122 48.0101 60.8652 48.3172 60.7507C48.6243 60.6361 48.9031 60.4568 49.1348 60.225L54.0807 55.2791C54.3533 55.0064 54.5065 54.6366 54.5065 54.251C54.5065 53.8655 54.3533 53.4957 54.0807 53.223Z" fill="#41B06E"/>
<path d="M47.3053 61.5713C40.9324 61.113 34.8443 58.7502 29.8307 54.7894C24.8172 50.8286 21.1096 45.4526 19.1889 39.3587C19.1344 39.1856 19.1508 38.998 19.2346 38.837C19.3184 38.6761 19.4627 38.555 19.6358 38.5005C19.8089 38.4459 19.9965 38.4623 20.1575 38.5462C20.3184 38.63 20.4395 38.7743 20.494 38.9473C22.3315 44.7805 25.8796 49.9267 30.678 53.7183C35.4765 57.5099 41.3037 59.7718 47.4037 60.2106C47.6327 60.2274 47.8626 60.1946 48.0778 60.1145C48.293 60.0343 48.4884 59.9087 48.6506 59.7462L53.5965 54.7994C53.668 54.7279 53.7248 54.6431 53.7634 54.5497C53.8021 54.4563 53.8221 54.3561 53.8221 54.255C53.8221 54.1539 53.8021 54.0538 53.7634 53.9604C53.7248 53.867 53.668 53.7821 53.5965 53.7107L45.9771 46.0912C45.9056 46.0197 45.8208 45.963 45.7274 45.9243C45.6339 45.8856 45.5338 45.8657 45.4327 45.8657C45.3316 45.8657 45.2315 45.8856 45.1381 45.9243C45.0447 45.963 44.9598 46.0197 44.8884 46.0912L41.5649 49.413C41.2472 49.7307 40.8701 49.9827 40.455 50.1547C40.0399 50.3266 39.595 50.4151 39.1458 50.4151C38.6965 50.4151 38.2516 50.3266 37.8366 50.1547C37.4215 49.9827 37.0444 49.7307 36.7267 49.413L29.954 42.6395C29.6363 42.3218 29.3843 41.9446 29.2123 41.5296C29.0404 41.1145 28.9519 40.6696 28.9519 40.2204C28.9519 39.7711 29.0404 39.3262 29.2123 38.9112C29.3843 38.4961 29.6363 38.119 29.954 37.8013L33.28 34.4752C33.4242 34.3309 33.5052 34.1353 33.5052 33.9313C33.5052 33.7273 33.4242 33.5317 33.28 33.3874L25.6572 25.7671C25.5857 25.6956 25.5009 25.6388 25.4074 25.6001C25.314 25.5614 25.2139 25.5415 25.1128 25.5415C25.0117 25.5415 24.9116 25.5614 24.8182 25.6001C24.7248 25.6388 24.6399 25.6956 24.5685 25.7671L19.6268 30.7087C19.4634 30.8719 19.3373 31.0686 19.2571 31.2851C19.177 31.5017 19.1447 31.7331 19.1624 31.9634C19.2633 33.3613 19.4599 34.7506 19.7508 36.1216C19.771 36.21 19.7733 36.3016 19.7577 36.3909C19.7421 36.4803 19.7089 36.5656 19.6601 36.642C19.6112 36.7184 19.5476 36.7844 19.4731 36.836C19.3985 36.8876 19.3144 36.9239 19.2257 36.9427C19.1369 36.9615 19.0454 36.9625 18.9563 36.9456C18.8672 36.9287 18.7823 36.8943 18.7066 36.8443C18.6309 36.7943 18.5659 36.7298 18.5154 36.6545C18.4649 36.5791 18.4299 36.4945 18.4124 36.4055C18.1084 34.9751 17.9032 33.5254 17.7983 32.0668C17.7652 31.6401 17.825 31.2112 17.9735 30.8098C18.122 30.4084 18.3558 30.0439 18.6587 29.7414L23.6046 24.8032C23.8031 24.6046 24.0389 24.4471 24.2983 24.3396C24.5578 24.2321 24.8358 24.1768 25.1167 24.1768C25.3975 24.1768 25.6756 24.2321 25.935 24.3396C26.1945 24.4471 26.4302 24.6046 26.6288 24.8032L34.2482 32.4226C34.4468 32.6212 34.6043 32.8569 34.7118 33.1164C34.8193 33.3758 34.8746 33.6539 34.8746 33.9347C34.8746 34.2155 34.8193 34.4936 34.7118 34.7531C34.6043 35.0125 34.4468 35.2482 34.2482 35.4468L30.9187 38.7694C30.5338 39.1544 30.3176 39.6764 30.3176 40.2208C30.3176 40.7652 30.5338 41.2872 30.9187 41.6722L37.6923 48.4457C38.0772 48.8307 38.5993 49.0469 39.1436 49.0469C39.688 49.0469 40.2101 48.8307 40.595 48.4457L43.9211 45.1188C44.322 44.718 44.8658 44.4928 45.4327 44.4928C45.9997 44.4928 46.5434 44.718 46.9444 45.1188L54.5647 52.7391C54.7633 52.9377 54.9208 53.1734 55.0283 53.4328C55.1358 53.6923 55.1911 53.9704 55.1911 54.2512C55.1911 54.532 55.1358 54.8101 55.0283 55.0695C54.9208 55.329 54.7633 55.5647 54.5647 55.7633L49.6179 60.71C49.3169 61.0113 48.9546 61.2441 48.5555 61.3928C48.1564 61.5414 47.73 61.6023 47.3053 61.5713Z" fill="black"/>
<path d="M22.2104 27.1572L24.1457 25.222C24.4023 24.9654 24.7503 24.8212 25.1133 24.8212C25.4762 24.8212 25.8242 24.9654 26.0809 25.222L33.8217 32.9629C34.0783 33.2195 34.2225 33.5675 34.2225 33.9305C34.2225 34.2934 34.0783 34.6414 33.8217 34.8981L31.8865 36.8333L22.2104 27.1572Z" fill="#41B06E"/>
<path d="M31.4028 37.3179L21.7231 27.6416C21.5949 27.5133 21.5228 27.3393 21.5228 27.1579C21.5228 26.9765 21.5949 26.8026 21.7231 26.6743L23.6619 24.7388C24.0469 24.3539 24.5689 24.1377 25.1133 24.1377C25.6576 24.1377 26.1797 24.3539 26.5646 24.7388L34.3055 32.4797C34.6904 32.8646 34.9067 33.3867 34.9067 33.9311C34.9067 34.4754 34.6904 34.9975 34.3055 35.3824L32.3701 37.3179C32.2418 37.4461 32.0678 37.5181 31.8864 37.5181C31.7051 37.5181 31.5311 37.4461 31.4028 37.3179ZM23.177 27.1575L31.886 35.8665L33.3399 34.4126C33.4036 34.349 33.454 34.2736 33.4885 34.1905C33.5229 34.1075 33.5406 34.0184 33.5406 33.9285C33.5406 33.8386 33.5229 33.7496 33.4885 33.6665C33.454 33.5834 33.4036 33.508 33.3399 33.4444L25.5965 25.7061C25.4682 25.5779 25.2942 25.5059 25.1129 25.5059C24.9315 25.5059 24.7575 25.5779 24.6292 25.7061L23.177 27.1575Z" fill="black"/>
<path d="M54.1414 55.2183L52.206 57.1538L42.5297 47.4775L44.4651 45.542C44.5922 45.4149 44.743 45.3141 44.9091 45.2453C45.0751 45.1765 45.2531 45.1411 45.4328 45.1411C45.6125 45.1411 45.7905 45.1765 45.9565 45.2453C46.1226 45.3141 46.2735 45.4149 46.4005 45.542L54.1414 53.2829C54.2685 53.41 54.3693 53.5608 54.4381 53.7269C54.5069 53.8929 54.5423 54.0709 54.5423 54.2506C54.5423 54.4303 54.5069 54.6083 54.4381 54.7743C54.3693 54.9404 54.2685 55.0913 54.1414 55.2183Z" fill="#41B06E"/>
<path d="M54.0806 55.2792L52.2059 57.1539L50.8375 55.7855L53.3964 53.2266C53.5131 53.1086 53.6091 52.9719 53.6804 52.822L54.0806 53.2231C54.3533 53.4958 54.5064 53.8656 54.5064 54.2511C54.5064 54.6367 54.3533 55.0065 54.0806 55.2792Z" fill="#8DECB4"/>
<path d="M51.7218 57.6379L42.0464 47.9616C41.9828 47.898 41.9323 47.8226 41.8979 47.7395C41.8634 47.6564 41.8457 47.5674 41.8457 47.4775C41.8457 47.3876 41.8634 47.2986 41.8979 47.2155C41.9323 47.1324 41.9828 47.057 42.0464 46.9934L43.9809 45.0588C44.1716 44.8681 44.3979 44.7168 44.647 44.6136C44.8961 44.5104 45.1631 44.4573 45.4327 44.4573C45.7024 44.4573 45.9694 44.5104 46.2185 44.6136C46.4676 44.7168 46.6939 44.8681 46.8845 45.0588L54.6254 52.7997C55.0103 53.1847 55.2265 53.7067 55.2265 54.2511C55.2265 54.7954 55.0103 55.3175 54.6254 55.7024L52.69 57.6379C52.6264 57.7015 52.551 57.752 52.4679 57.7864C52.3848 57.8208 52.2958 57.8385 52.2059 57.8385C52.116 57.8385 52.0269 57.8208 51.9439 57.7864C51.8608 57.752 51.7854 57.7015 51.7218 57.6379ZM43.4977 47.4775L52.2059 56.1857L53.6598 54.7317C53.788 54.6034 53.8601 54.4295 53.8601 54.2481C53.8601 54.0667 53.788 53.8927 53.6598 53.7644L45.9189 46.0236C45.7906 45.8954 45.6167 45.8233 45.4353 45.8233C45.2539 45.8233 45.08 45.8954 44.9517 46.0236L43.4977 47.4775Z" fill="black"/>
<path d="M49.848 18.4743C43.91 18.5265 39.0573 23.3749 38.9991 29.3138C38.9793 31.0534 39.3764 32.7725 40.1571 34.3272C40.3199 34.6501 40.4174 35.0019 40.4439 35.3625C40.4705 35.7231 40.4256 36.0854 40.3119 36.4286L38.9991 40.3687L42.9393 39.0551C43.2825 38.9414 43.6448 38.8965 44.0054 38.9231C44.366 38.9496 44.7178 39.0471 45.0406 39.2099C46.5953 39.9909 48.3144 40.3883 50.0541 40.3687C55.993 40.3114 60.8414 35.4596 60.8927 29.5207C60.9059 28.0666 60.6293 26.6243 60.0789 25.2782C59.5286 23.9322 58.7156 22.7092 57.6874 21.6808C56.6592 20.6525 55.4363 19.8393 54.0903 19.2887C52.7443 18.7382 51.3022 18.4613 49.848 18.4743Z" fill="#CD4F5F"/>
<path d="M50.0541 38.3161C48.3145 38.3358 46.5954 37.9388 45.0406 37.158C44.7178 36.9953 44.366 36.8978 44.0054 36.8712C43.6448 36.8447 43.2825 36.8895 42.9393 37.0032L39.7689 38.0595L38.9991 40.3687L42.9393 39.055C43.2825 38.9413 43.6448 38.8964 44.0054 38.923C44.366 38.9495 44.7178 39.047 45.0406 39.2098C46.5953 39.9908 48.3144 40.3882 50.0541 40.3687C56.4001 40.3079 61.4452 34.7941 60.8457 28.3892C60.3308 33.8995 55.6825 38.2613 50.0541 38.3161Z" fill="#B24654"/>
<path d="M44.7292 39.8213C44.4873 39.6982 44.2234 39.6245 43.9528 39.6044C43.6822 39.5843 43.4103 39.6182 43.1529 39.7041L39.2119 41.0178C39.0914 41.058 38.962 41.0638 38.8383 41.0346C38.7146 41.0054 38.6015 40.9424 38.5117 40.8525C38.4218 40.7627 38.3588 40.6496 38.3296 40.5259C38.3004 40.4022 38.3062 40.2728 38.3464 40.1523L39.6601 36.2121C39.7459 35.9553 39.78 35.684 39.7605 35.4139C39.7409 35.1439 39.6682 34.8803 39.5463 34.6385C38.713 32.9862 38.2905 31.1572 38.3148 29.3068C38.3764 22.9908 43.5258 17.8456 49.8418 17.79C51.7552 17.7726 53.6432 18.2277 55.3385 19.115C57.0338 20.0022 58.4839 21.2941 59.5602 22.8761C60.6365 24.4582 61.3057 26.2814 61.5084 28.184C61.7111 30.0867 61.4411 32.0099 60.7223 33.7832C60.6911 33.8698 60.6426 33.9491 60.58 34.0165C60.5173 34.0839 60.4417 34.138 60.3577 34.1755C60.2736 34.213 60.1829 34.2332 60.0908 34.2348C59.9988 34.2364 59.9074 34.2194 59.8221 34.1849C59.7368 34.1503 59.6593 34.0989 59.5944 34.0338C59.5294 33.9686 59.4782 33.891 59.4439 33.8056C59.4096 33.7202 59.3929 33.6287 59.3948 33.5367C59.3967 33.4447 59.4171 33.354 59.4549 33.2701C62.2019 26.5367 57.1996 19.1011 49.8521 19.1584C44.3015 19.2072 39.7371 23.7657 39.6832 29.3197C39.6612 30.9521 40.0335 32.5658 40.7685 34.0235C40.973 34.4256 41.0958 34.8642 41.1297 35.314C41.1636 35.7638 41.108 36.2159 40.9661 36.644L40.0851 39.2868L42.727 38.4059C43.1555 38.2626 43.6081 38.2059 44.0587 38.2389C44.5093 38.272 44.9488 38.3941 45.3518 38.5983C47.4493 39.6503 49.8445 39.95 52.1366 39.4471C54.4286 38.9442 56.4784 37.6693 57.9428 35.8358C57.9989 35.7656 58.0684 35.7072 58.1471 35.6638C58.2259 35.6205 58.3124 35.593 58.4017 35.5831C58.4911 35.5732 58.5815 35.5809 58.6678 35.606C58.7542 35.631 58.8347 35.6728 58.9049 35.7289C58.9751 35.7851 59.0336 35.8545 59.0769 35.9332C59.1203 36.012 59.1477 36.0985 59.1577 36.1879C59.1676 36.2772 59.1598 36.3676 59.1348 36.454C59.1098 36.5403 59.068 36.6209 59.0118 36.6911C57.3508 38.7711 55.0254 40.2172 52.4252 40.787C49.825 41.3569 47.1079 41.0159 44.7292 39.8213Z" fill="black"/>
<path d="M55.42 27.3688H51.999V23.9478H47.8938V27.3688H44.4728V31.474H47.8938V34.895H51.999V31.474H55.42V27.3688Z" fill="#F6F6F6"/>
<path d="M51.999 35.5793H47.8938C47.7123 35.5793 47.5383 35.5072 47.41 35.3789C47.2817 35.2506 47.2096 35.0765 47.2096 34.8951V32.1583H44.4728C44.2913 32.1583 44.1173 32.0862 43.989 31.9579C43.8607 31.8296 43.7886 31.6555 43.7886 31.4741V27.3689C43.7886 27.1874 43.8607 27.0134 43.989 26.8851C44.1173 26.7568 44.2913 26.6847 44.4728 26.6847H47.2096V23.9479C47.2096 23.7664 47.2817 23.5924 47.41 23.4641C47.5383 23.3358 47.7123 23.2637 47.8938 23.2637H51.999C52.1804 23.2637 52.3545 23.3358 52.4828 23.4641C52.6111 23.5924 52.6832 23.7664 52.6832 23.9479V26.6847H55.42C55.6014 26.6847 55.7755 26.7568 55.9038 26.8851C56.0321 27.0134 56.1042 27.1874 56.1042 27.3689V31.4741C56.1042 31.6555 56.0321 31.8296 55.9038 31.9579C55.7755 32.0862 55.6014 32.1583 55.42 32.1583H52.6832V34.8951C52.6832 35.0765 52.6111 35.2506 52.4828 35.3789C52.3545 35.5072 52.1804 35.5793 51.999 35.5793ZM48.578 34.2109H51.3148V31.4741C51.3148 31.2926 51.3869 31.1186 51.5152 30.9903C51.6435 30.862 51.8175 30.7899 51.999 30.7899H54.7358V28.0531H51.999C51.8175 28.0531 51.6435 27.981 51.5152 27.8527C51.3869 27.7244 51.3148 27.5503 51.3148 27.3689V24.6321H48.578V27.3689C48.578 27.5503 48.5059 27.7244 48.3776 27.8527C48.2493 27.981 48.0752 28.0531 47.8938 28.0531H45.157V30.7899H47.8938C48.0752 30.7899 48.2493 30.862 48.3776 30.9903C48.5059 31.1186 48.578 31.2926 48.578 31.4741V34.2109Z" fill="black"/>
<defs>
<radialGradient id="paint0_radial_167_23" cx="0" cy="0" r="1" gradientUnits="userSpaceOnUse" gradientTransform="translate(39 39) rotate(90) scale(39)">
<stop stop-color="#FFF5E0"/>
<stop offset="1" stop-color="#41B06E"/>
</radialGradient>
</defs>
</svg>
