<svg width="12" height="9" viewBox="0 0 12 9" fill="none" xmlns="http://www.w3.org/2000/svg">
<path fill-rule="evenodd" clip-rule="evenodd" d="M3.85714 4.28571C2.82549 4.28571 1.95791 5.02518 1.75781 6H0.428571C0.314907 6 0.205905 6.04515 0.125532 6.12552C0.0451591 6.2059 0 6.31491 0 6.42857C0 6.54224 0.0451591 6.65124 0.125532 6.73162C0.205905 6.81199 0.314907 6.85714 0.428571 6.85714H1.75781C1.95791 7.83197 2.82549 8.57143 3.85714 8.57143C4.8888 8.57143 5.75638 7.83197 5.95647 6.85714H11.5714C11.6851 6.85714 11.7941 6.81199 11.8745 6.73162C11.9548 6.65124 12 6.54224 12 6.42857C12 6.31491 11.9548 6.2059 11.8745 6.12552C11.7941 6.04515 11.6851 6 11.5714 6H5.95647C5.75638 5.02518 4.8888 4.28571 3.85714 4.28571ZM8.14286 0C7.1112 0 6.24362 0.739461 6.04353 1.71429H0.428571C0.314907 1.71429 0.205905 1.75944 0.125532 1.83981C0.0451591 1.92018 0 2.02919 0 2.14286C0 2.25652 0.0451591 2.36553 0.125532 2.4459C0.205905 2.52628 0.314907 2.57143 0.428571 2.57143H6.04353C6.24362 3.54625 7.1112 4.28571 8.14286 4.28571C9.17451 4.28571 10.0421 3.54625 10.2422 2.57143H11.5714C11.6851 2.57143 11.7941 2.52628 11.8745 2.4459C11.9548 2.36553 12 2.25652 12 2.14286C12 2.02919 11.9548 1.92018 11.8745 1.83981C11.7941 1.75944 11.6851 1.71429 11.5714 1.71429H10.2422C10.0421 0.739461 9.17451 0 8.14286 0Z" fill="#333333"/>
</svg>
