<svg width="258" height="157" viewBox="0 0 58 57" fill="none" xmlns="http://www.w3.org/2000/svg">
<path d="M50.9895 29.5221C50.4369 30.4332 50.0658 31.4298 49.8315 32.3804C49.6187 31.6364 49.3083 30.8968 48.8827 30.2281C48.2863 29.2907 47.4613 28.4918 46.3694 28.0222C47.4286 27.7355 48.2586 27.202 48.8706 26.3579C49.3508 25.6956 49.6822 24.8598 49.895 23.8407C50.1394 24.64 50.5142 25.2539 51.0672 25.7109C51.6734 26.2119 52.4594 26.4949 53.4301 26.6561C53.6281 26.689 53.8352 26.717 54.0515 26.7408C52.6842 27.3487 51.69 28.3672 50.9895 29.5221Z" fill="white" stroke="black" stroke-width="0.7125"/>
<path d="M30.0228 8.72336C29.0872 9.30158 28.3151 10.0708 27.8637 11.0297C27.8407 10.9725 27.816 10.9169 27.7897 10.863C27.5135 10.2992 27.0664 9.95662 26.4504 9.75636C25.9749 9.60178 25.39 9.52891 24.6914 9.49477C25.2186 9.22536 25.6213 8.8729 25.9225 8.42945C26.3316 7.82717 26.5253 7.09405 26.6213 6.26643C26.6414 6.09242 26.6574 5.9126 26.6701 5.72718C26.7696 5.87092 26.8791 6.0065 26.9981 6.13422C27.6167 6.79835 28.466 7.22439 29.3957 7.50191C30.1211 7.71845 30.9144 7.84962 31.7174 7.92908C31.1146 8.1379 30.542 8.40247 30.0228 8.72336Z" fill="white" stroke="black" stroke-width="0.7125"/>
<path d="M9.35091 29.2049C8.53718 30.1335 7.87059 31.5539 7.50393 33.7116C7.05649 31.8321 6.27014 30.7707 5.30685 30.2017C4.77701 29.8887 4.21568 29.7395 3.67089 29.675C4.26825 29.3377 4.86964 28.8737 5.42568 28.2578C6.36317 27.2196 7.16358 25.7599 7.60745 23.7657C7.97774 25.4601 8.62528 26.5409 9.42332 27.2214C9.89395 27.6227 10.4045 27.8728 10.9145 28.0287C10.378 28.2729 9.84229 28.6441 9.35091 29.2049Z" fill="white" stroke="black" stroke-width="0.7125"/>
<path d="M28.9697 44.0672H35.0432L28.9697 47.6056C28.773 47.6056 28.6135 47.7651 28.6135 47.9619C28.6135 48.1586 28.773 48.3181 28.9697 48.3181H35.0432V52.2128C35.0432 52.3579 35.0159 52.5011 34.9633 52.6341C34.9107 52.7671 34.8341 52.8868 34.7387 52.9865C34.6433 53.0862 34.5311 53.1641 34.4091 53.2166C34.2871 53.269 34.1571 53.2953 34.0265 53.2945H34.0242H33.9955H33.9668H33.9382H33.9097H33.8812H33.8529H33.8246H33.7964H33.7682H33.7401H33.7121H33.6842H33.6564H33.6286H33.6009H33.5732H33.5457H33.5182H33.4907H33.4634H33.4361H33.4089H33.3817H33.3547H33.3277H33.3007H33.2739H33.2471H33.2203H33.1937H33.1671H33.1406H33.1141H33.0877H33.0614H33.0352H33.009H32.9829H32.9568H32.9309H32.9049H32.8791H32.8533H32.8276H32.802H32.7764H32.7509H32.7254H32.7H32.6747H32.6494H32.6242H32.5991H32.574H32.549H32.5241H32.4992H32.4744H32.4496H32.425H32.4003H32.3758H32.3513H32.3268H32.3024H32.2781H32.2539H32.2297H32.2055H32.1814H32.1574H32.1335H32.1096H32.0857H32.062H32.0382H32.0146H31.991H31.9674H31.944H31.9205H31.8972H31.8739H31.8506H31.8274H31.8043H31.7812H31.7582H31.7352H31.7123H31.6894H31.6666H31.6439H31.6212H31.5985H31.576H31.5534H31.531H31.5085H31.4862H31.4639H31.4416H31.4194H31.3973H31.3752H31.3531H31.3311H31.3092H31.2873H31.2655H31.2437H31.222H31.2003H31.1786H31.1571H31.1355H31.1141H31.0926H31.0712H31.0499H31.0286H31.0074H30.9862H30.9651H30.944H30.923H30.902H30.8811H30.8602H30.8393H30.8185H30.7978H30.7771H30.7564H30.7358H30.7153H30.6948H30.6743H30.6539H30.6335H30.6132H30.5929H30.5726H30.5524H30.5323H30.5122H30.4921H30.4721H30.4521H30.4322H30.4123H30.3924H30.3726H30.3529H30.3332H30.3135H30.2938H30.2742H30.2547H30.2352H30.2157H30.1963H30.1769H30.1576H30.1382H30.119H30.0997H30.0806H30.0614H30.0423H30.0232H30.0042H29.9852H29.9663H29.9473H29.9285H29.9096H29.8908H29.872H29.8533H29.8346H29.816H29.7973H29.7788H29.7602H29.7417H29.7232H29.7048H29.6864H29.668H29.6497H29.6314H29.6131H29.5949H29.5767H29.5585H29.5404H29.5223H29.5042H29.4862H29.4682H29.4502H29.4323H29.4144H29.3965H29.3787H29.3609H29.3431H29.3253H29.3076H29.2899H29.2723H29.2546H29.237H29.2195H29.2019H29.1844H29.167H29.1495H29.1321H29.1147H29.0973H29.08H29.0627H29.0454H29.0281H29.0109H28.9937H28.9765H28.9594H28.9423H28.9252H28.9081H28.8911H28.8741H28.8571H28.8401H28.8232H28.8062H28.7893H28.7725H28.7556H28.7388H28.722H28.7052H28.6885H28.6717H28.655H28.6384H28.6217H28.6051H28.5884H28.5718H28.5553H28.5387H28.5222H28.5057H28.4892H28.4727H28.4562H28.4398H28.4234H28.407H28.3906H28.3743H28.3579H28.3416H28.3253H28.309H28.2928H28.2765H28.2603H28.2441H28.2279H28.2117H28.1956H28.1794H28.1633H28.1472H28.1311H28.115H28.099H28.0829H28.0669H28.0509H28.0348H28.0189H28.0029H27.9869H27.971H27.955H27.9391H27.9232H27.9073H27.8914H27.8756H27.8597H27.8439H27.828H27.8122H27.7964H27.7806H27.7648H27.749H27.7333H27.7175H27.7018H27.686H27.6703H27.6546H27.6389H27.6232H27.6075H27.5918H27.5761H27.5605H27.5448H27.5292H27.5135H27.4979H27.4823H27.4666H27.451H27.4354H27.4198H27.4042H27.3886H27.373H27.3575H27.3419H27.3263H27.3108H27.2952H27.2797H27.2641H27.2486H27.233H27.2175H27.202H27.1864H27.1709H27.1554H27.1398H27.1243H27.1088H27.0933H27.0778H27.0623H27.0467H27.0312H27.0157H27.0002H26.9847H26.9692H26.9537H26.9382H26.9227H26.9072H26.8916H26.8761H26.8606H26.8451H26.8296H26.8141H26.7985H26.783H26.7675H26.752H26.7364H26.7209H26.7053H26.6898H26.6743H26.6587H26.6432H26.6276H26.612H26.5965H26.5809H26.5653H26.5497H26.5341H26.5185H26.5029H26.4873H26.4717H26.4561H26.4405H26.4248H26.4092H26.3935H26.3779H26.3622H26.3465H26.3308H26.3151H26.2994H26.2837H26.268H26.2523H26.2365H26.2208H26.205H26.1892H26.1735H26.1577H26.1419H26.126H26.1102H26.0944H26.0785H26.0627H26.0468H26.0309H26.015H25.9991H25.9832H25.9672H25.9513H25.9353H25.9193H25.9033H25.8873H25.8713H25.8553H25.8392H25.8231H25.807H25.7909H25.7748H25.7587H25.7425H25.7264H25.7102H25.694H25.6778H25.6615H25.6453H25.629H25.6127H25.5964H25.5801H25.5638H25.5474H25.531H25.5146H25.4982H25.4818H25.4653H25.4488H25.4323H25.4158H25.3992H25.3827H25.3661H25.3495H25.3329H25.3162H25.2995H25.2829H25.2661H25.2494H25.2326H25.2158H25.199H25.1822H25.1654H25.1485H25.1316H25.1146H25.0977H25.0807H25.0637H25.0467H25.0296H25.0125H24.9954H24.9783H24.9611H24.944H24.9268H24.9095H24.8922H24.875H24.8576H24.8403H24.8229H24.8055H24.7881H24.7706H24.7531H24.7356H24.7181H24.7005H24.6829H24.6652H24.6476H24.6299H24.6121H24.5944H24.5766H24.5588H24.5409H24.523H24.5051H24.4872H24.4692H24.4512H24.4331H24.415H24.3969H24.3788V53.2943L24.3694 53.2946C24.2367 53.2981 24.1043 53.2735 23.9798 53.2219C23.8552 53.1702 23.7406 53.0922 23.6431 52.9915C23.5456 52.8908 23.4673 52.7695 23.4139 52.6343C23.3605 52.4992 23.3332 52.3534 23.3341 52.206V52.2038V43.711V43.6176L23.2883 43.5362C22.6725 42.4427 21.8434 41.3805 20.9964 40.3602C20.7372 40.048 20.4772 39.7407 20.2205 39.4373C19.6303 38.7396 19.0575 38.0625 18.5519 37.3939L18.5512 37.3929C16.6591 34.9081 15.6342 31.8122 15.6514 28.6236L15.6514 28.6233C15.6691 24.8482 17.1098 21.2382 19.6521 18.5848C22.1939 15.932 25.6283 14.4521 29.2003 14.4637L29.202 14.4637C32.7697 14.4591 36.1977 15.942 38.734 18.5941C41.271 21.2468 42.7083 24.8528 42.726 28.6233L42.726 28.6236C42.7431 31.8122 41.7183 34.9081 39.8262 37.3929L39.8255 37.3937C39.3211 38.0602 38.75 38.7352 38.1615 39.4306C37.9031 39.736 37.6413 40.0454 37.3803 40.3597C36.5802 41.3235 35.7963 42.3249 35.1932 43.3547H28.9697C28.773 43.3547 28.6135 43.5142 28.6135 43.711C28.6135 43.9077 28.773 44.0672 28.9697 44.0672Z" fill="#529B46" stroke="black" stroke-width="0.7125" stroke-linecap="round"/>
<g clip-path="url(#clip0_167_12)">
<path d="M28.2502 34.5492V31.4075L30.115 31.3843V34.5492L32.2806 34.6189V36.3913H30.115V38.424H28.2502L28.1299 36.3913L26.1448 36.3449V34.5492H28.2502Z" fill="#C94E59"/>
<ellipse cx="29.1886" cy="26.4275" rx="4.96135" ry="4.66921" fill="#C94E59"/>
<ellipse cx="29.325" cy="26.4169" rx="2.93879" ry="2.70844" fill="white"/>
<path d="M29.212 29.8905C31.0397 29.8905 32.5263 28.4056 32.5263 26.5804C32.5263 24.7547 31.0397 23.2693 29.212 23.2693C27.3853 23.2693 25.8987 24.7547 25.8987 26.5804C25.8987 28.4056 27.3853 29.8905 29.212 29.8905ZM29.212 24.0049C30.6338 24.0049 31.79 25.1602 31.79 26.5804C31.79 28 30.6338 29.1549 29.212 29.1549C27.7912 29.1549 26.635 28 26.635 26.5804C26.635 25.1602 27.7912 24.0049 29.212 24.0049Z" fill="black"/>
<path d="M34.4286 26.5805C34.4286 23.7068 32.0887 21.3689 29.212 21.3689C26.336 21.3689 23.9963 23.7068 23.9963 26.5805C23.9963 28.9978 25.655 31.03 27.8933 31.616V34.2366H26.1949C25.9914 34.2366 25.8268 34.4014 25.8268 34.6044V36.5054C25.8268 36.7087 25.9914 36.8732 26.1949 36.8732H27.8933V38.4608C27.8933 38.6641 28.058 38.8286 28.2614 38.8286H30.1638C30.3672 38.8286 30.5319 38.6641 30.5319 38.4608V36.8732H32.2303C32.4338 36.8732 32.5985 36.7087 32.5985 36.5054V34.6044C32.5985 34.4014 32.4338 34.2366 32.2303 34.2366H30.5319V31.6158C32.7703 31.0295 34.4286 28.9976 34.4286 26.5805ZM24.7326 26.5805C24.7326 24.1126 26.7422 22.1045 29.212 22.1045C31.6825 22.1045 33.6923 24.1124 33.6923 26.5805C33.6923 28.7666 32.1135 30.5889 30.0362 30.9768C29.909 31.0003 29.7816 31.0209 29.6543 31.0334C29.6037 31.0386 29.5517 31.0381 29.5006 31.041C29.294 31.0545 29.0873 31.0545 28.8809 31.0388C28.8448 31.0361 28.8075 31.0369 28.7717 31.0334C28.6338 31.0197 28.4961 30.9984 28.3584 30.9719C26.2955 30.5722 24.7326 28.7563 24.7326 26.5805ZM29.7956 31.7582V34.6042C29.7956 34.8072 29.9603 34.972 30.1638 34.972H31.8622V36.1374H30.1638C29.9603 36.1374 29.7956 36.3019 29.7956 36.5052V38.0928H28.6296V36.5052C28.6296 36.3019 28.4647 36.1374 28.2614 36.1374H26.5631V34.972H28.2614C28.4647 34.972 28.6296 34.8072 28.6296 34.6042V31.7582C28.6367 31.759 28.6438 31.7592 28.6509 31.7599C28.6792 31.7631 28.7076 31.7649 28.7361 31.7673C28.8944 31.782 29.0525 31.7911 29.2103 31.7913C29.2108 31.7913 29.2118 31.7913 29.2122 31.7913C29.2127 31.7913 29.213 31.7913 29.213 31.7913C29.372 31.7913 29.5313 31.782 29.6906 31.7671C29.7178 31.7646 29.7453 31.7629 29.7726 31.7602C29.7802 31.7592 29.7878 31.759 29.7956 31.7582Z" fill="black"/>
</g>
<defs>
<clipPath id="clip0_167_12">
<rect width="10.45" height="17.5275" fill="white" transform="translate(23.9875 21.3274)"/>
</clipPath>
</defs>
</svg>
